<?xml version="1.0" encoding="UTF-8" standalone="no"?>
<svg version="1.1"
     width="744.72729"
     height="558.54547"
     viewBox="0 0 744.72729 558.54547"
     xmlns="http://www.w3.org/2000/svg"
     id="delkareth"
     style="display:inline;fill:#ffffff00;stroke:#000;stroke-width:1"
>
    <g id="azmaran">
        <path id="azmaran-1"
              d="m 238.9091,373.98851 c -1.80786,0.34673 -3.03671,1.63011 -4.72727,2.20286 -2.35172,0.79674 -4.8472,0.49809 -6.90348,2.13384 -2.18426,1.73757 -2.41841,4.22043 -3.94838,6.32604 -1.15316,1.58704 -3.04261,2.30348 -4.06958,4.08136 -2.81445,4.87229 -2.88603,13.6313 -1.79097,18.90377 0.49201,2.36896 -2.02617,4.85573 -1.79909,7.63636 0.53018,6.49214 9.28586,7.6911 14.5115,6.74019 7.16985,-1.30469 4.89368,-9.65141 6.81509,-14.74019 1.51592,-4.01487 6.25917,-5.82227 8.32407,-9.45455 1.52696,-2.68603 0.20336,-4.88148 0.34261,-7.63636 0.0775,-1.53276 1.22268,-2.84424 1.48959,-4.36364 0.89283,-5.08238 -1.82239,-13.06143 -8.24409,-11.82968 z"/>
        <path id="azmaran-2"
              d="m 259.27273,389.98709 c -5.36798,0.96822 -4.08686,4.44976 -6.73231,7.76403 -2.24325,2.81042 -5.78231,3.57702 -6.29126,7.70344 -0.37324,3.02628 1.82793,4.87775 1.93295,7.63636 0.17101,4.49192 -1.82639,9.86253 -0.93042,14.18182 0.52005,2.50701 2.55056,3.98873 3.6577,6.18182 1.18694,2.35125 1.29321,4.4648 4,5.64786 2.05338,0.8975 4.29596,1.47288 6.54516,1.19389 1.1929,-0.14795 2.42359,-0.92543 3.63637,-0.69163 2.63676,0.5083 3.8766,2.98393 6.90909,2.45703 2.17556,-0.37797 3.54587,-2.034 5.45454,-2.94722 7.77646,-3.7207 14.82196,-8.22856 19.12121,-16.20539 0.88235,-1.63711 0.64533,-3.3932 1.2298,-5.09091 1.1792,-3.42529 3.53103,-7.2104 2.0188,-10.90909 -1.82835,-4.47185 -9.47581,-7.21919 -13.64253,-8.94864 -4.1106,-1.70614 -6.97894,-5.38605 -10.90909,-7.17902 -2.82711,-1.28977 -5.18866,0.0597 -8,0.13215 -2.75176,0.071 -5.02635,-1.46285 -8.00001,-0.9265 m -59.63636,19.6563 c -2.06599,0.43812 -3.56596,1.83043 -5.45455,2.64395 -4.30748,1.85543 -8.0296,2.73593 -9.26206,8.07631 -1.4899,6.45596 4.79249,17.30105 12.17115,15.87624 5.65681,-1.09228 2.50025,-6.27574 4.07183,-9.61838 0.92327,-1.96374 3.65571,-3.17405 4.84372,-5.16695 2.83525,-4.75613 0.30724,-13.22723 -6.37009,-11.81117 m 34.18182,14.19611 c -3.6226,0.43541 -4.6758,4.4597 -6.42565,7.0696 -2.08334,3.10729 -4.81623,5.98726 -5.45594,9.81819 -1.29428,7.75071 5.52459,14.70396 13.33613,13.37287 3.68393,-0.62771 8.6992,-9.45877 8.29488,-13.00924 -0.24569,-2.15758 -2.18133,-3.70277 -2.29124,-5.81818 -0.23686,-4.55895 -0.53768,-12.265 -7.45818,-11.43324 m -38.18182,26.34233 c -5.73071,-1.31063 -16.10864,-0.69984 -17.02216,7.27273 -0.3588,3.1313 1.49624,6.46937 2.99579,9.09091 1.05228,1.83958 2.09191,3.95348 3.85017,5.21857 4.79132,3.4474 14.83405,-0.7251 16.16441,-6.30948 1.00071,-4.20055 -2.38026,-10.62753 -4.53367,-14.18182 3.17133,0.8912 5.77666,-0.77037 8.57296,-0.26514 1.31594,0.23775 2.32264,1.76621 3.42705,2.44891 2.33467,1.44323 5.66907,1.46924 7.98428,-0.0544 6.03216,-3.96981 0.15255,-13.4221 -1.80668,-18.12935 -0.91742,-2.20419 -2.07267,-4.2646 -4.35971,-5.26065 -4.83192,-2.10436 -7.47521,2.21857 -10.42341,5.15962 -1.25837,1.25537 -3.13623,1.45277 -4.40767,2.72421 -3.25302,3.25306 -2.52859,8.69216 -0.44136,12.28591 m -1.81818,27.46662 c -7.50835,1.6464 -4.9737,15.37367 2.90909,13.86417 9.19791,-1.76127 6.22621,-15.86736 -2.90909,-13.86417 z"/>
    </g>
    <g id="unclaimed">
        <path id="unclaimed-1"
              d="m 92.727275,66.374558 c -3.996382,0.904608 -8.759943,8.487926 -8.654041,12.534535 0.04383,1.674805 1.602589,2.767001 1.673118,4.363637 0.15807,3.578302 -4.311979,7.587092 1.526378,9.456809 0.698669,0.223766 1.453885,0.334384 2.181818,0.203969 1.920627,-0.344061 3.245156,-1.89937 4.727273,-3.010387 1.214344,-0.91029 2.767656,-1.141957 3.932662,-2.125977 3.985617,-3.366477 1.265325,-6.85356 0.786477,-10.706233 -0.222379,-1.78924 1.32812,-3.299538 1.328,-5.090909 -2.4e-4,-3.631392 -4.126363,-6.389471 -7.501685,-5.625444 m -40.363637,6.546609 c -2.70459,0.658425 -2.944985,3.942117 -5.139171,4.61559 -1.7172,0.527077 -3.574094,-0.718795 -5.406284,-0.153188 -4.017636,1.240279 -6.939229,4.955745 -9.856063,7.611639 -1.831582,1.667747 -3.917913,2.401279 -4.25589,5.186613 -0.300681,2.477983 1.516807,3.948153 1.747756,6.181818 0.239993,2.321112 -2.093204,3.896711 -1.198373,6.545451 0.804996,2.38282 3.761936,3.75622 3.097082,6.54546 -1.339624,5.62012 -7.144675,3.41047 -9.382717,7.28844 -1.156996,2.00479 -0.414323,3.70996 -0.671717,5.80247 -0.267999,2.17875 -2.562842,4.20383 -1.288159,6.50728 2.859175,5.16677 8.309509,0.3125 11.626263,-0.0931 3.776181,-0.46183 8.2383,0.65296 12,-0.12154 3.927884,-0.80872 4.482178,-3.61541 6.749162,-6.18262 0.87525,-0.99116 2.331721,-1.24249 3.323509,-2.12207 1.813321,-1.60813 4.17931,-4.2326 5.662736,-6.11137 0.878052,-1.11208 0.765831,-2.67125 1.620095,-3.79909 0.999634,-1.31978 2.775025,-1.71467 3.788436,-3.05389 0.728277,-0.9624 0.72785,-2.54239 1.615606,-3.33532 2.782321,-2.48513 7.617693,1.73535 9.792087,-3.50785 0.855735,-2.063481 2.188915,-5.784407 1.923961,-7.998585 -0.210127,-1.755992 -1.816877,-3.298162 -1.558083,-5.090909 0.417569,-2.892667 3.313083,-5.04288 0.412176,-7.806374 -3.904469,-3.719505 -11.597856,-1.484198 -13.890853,3.079368 -0.629356,1.25253 -0.462158,8.234553 -3.400674,6.63552 -1.94044,-1.05593 -1.453807,-3.525435 -0.832769,-5.181241 1.423201,-3.794567 6.762158,-8.598234 1.158248,-10.594283 -1.060492,-0.377752 -2.165422,-0.622692 -3.272728,-0.818448 -1.408569,-0.249024 -2.958457,-0.371804 -4.363636,-0.02974 z"/>
        <path id="unclaimed-2"
              d="m 90.181821,327.10299 c -4.210211,1.02371 -5.067888,6.49983 -2.3931,9.54799 1.097301,1.25046 3.090316,1.7533 3.775818,3.36361 0.969527,2.27752 -0.585771,4.60272 1.365595,6.7747 1.660112,1.84782 4.828258,2.51694 7.069866,1.40854 0.90335,-0.44667 2.03326,-1.88787 3.11307,-1.73655 2.87574,0.40303 3.30992,3.62178 7.06875,2.51853 4.31206,-1.26562 3.20759,-4.76198 4.72306,-7.85635 1.58886,-3.24426 7.02723,-8.18049 2.51011,-11.87485 -2.65729,-2.17327 -5.51284,0.2696 -8.32408,0.15208 -5.94128,-0.24838 -12.807149,-3.78136 -18.909089,-2.2977 m 105.454549,16.75085 c -6.77324,1.44471 -6.32531,13.73337 1.81818,11.84623 2.02206,-0.46857 4.53771,-1.5836 5.21718,-3.70539 1.18914,-3.71326 -3.07196,-8.98621 -7.03536,-8.14084 z"/>
        <path id="unclaimed-3"
              d="m 116.36364,350.80108 c -3.40921,1.1535 -3.60412,4.05482 -4.32716,7.01711 -0.44954,1.84176 -1.39627,3.50844 -0.93322,5.45455 1.13549,4.77213 7.13441,5.69589 11.07856,4.32464 2.85293,-0.99186 6.92656,-3.58476 7.23205,-6.8701 0.24645,-2.65043 -1.50041,-3.82157 -3.13749,-5.55837 -2.67733,-2.84042 -5.43549,-5.88268 -9.91274,-4.36783 z"/>
        <path id="unclaimed-4"
              d="m 371.63637,400.00001 c 3.72706,-0.16047 8.22976,-2.05691 11.93826,-1.13663 2.69695,0.66926 4.65794,3.21897 7.69811,3.60409 3.03871,0.3849 4.05762,-2.42262 6.54545,-3.33895 1.27655,-0.47017 2.70233,-0.0173 4,-0.4063 1.50471,-0.45108 2.46858,-1.86678 4,-2.24325 2.03294,-0.49973 3.95313,0.24676 5.81144,-1.07999 3.407,-2.43235 2.31308,-7.43728 -1.11701,-9.3319 -3.6946,-2.04075 -6.84122,1.30762 -10.498,0.36253 -2.56996,-0.66424 -3.14644,-3.91016 -6.19643,-4.20961 -2.09477,-0.2057 -3.2009,0.78614 -5.09091,1.2354 -1.57714,0.37491 -3.09428,-0.32391 -4.72727,0.27694 -2.9652,1.09096 -5.55362,3.87265 -8.36364,5.38663 -2.19415,1.18218 -4.91654,0.48207 -7.27272,1.17339 -4.12378,1.20996 -6.35902,5.07129 -8.18127,8.57857 -1.88694,3.63183 -6.79629,3.56139 -5.44302,9.12908 0.72778,2.99428 4.82803,5.23726 7.80611,4.14422 1.57588,-0.57839 2.48659,-2.18612 4,-2.8959 1.70152,-0.79803 3.63441,-0.64906 4.82097,-2.3774 1.31548,-1.91606 0.31401,-4.73487 0.26993,-6.87092 z"/>
    </g>
    <path id="shalkaar"
          d="m 536.36365,481.09092 c 1.665,5.86701 4.22501,8.93014 10.54546,6.90909 2.15052,4.13388 5.73149,4.15284 9.81818,3.63637 0.17432,1.16304 0.45383,2.25954 1.08896,3.27131 5.05757,8.0573 10.621,-1.79803 16.33163,1.46076 2.27779,1.2998 2.85591,4.15429 5.4885,5.22669 4.15718,1.69345 7.13184,-1.67334 10.90909,-1.11448 2.09877,0.3105 3.65119,2.2124 5.81818,2.62207 6.14107,1.16091 12.38304,1.89924 18.54546,2.95956 1.45095,0.24969 2.95747,-0.34348 4.36364,-0.0249 2.12047,0.48033 3.50168,2.37535 5.81818,2.54767 2.32577,0.17303 4.01527,-1.70477 6.18182,-1.7587 6.83278,-0.17001 14.59787,3.94216 19.63636,-3.18994 h 0.36364 c 3.5221,4.25058 11.7365,2.73801 15.63077,-0.46467 1.35445,-1.1139 2.15718,-3.89808 3.71941,-4.53871 1.30442,-0.53489 3.37602,0.96463 4.64982,1.30922 4.1661,1.12695 8.4624,-0.39839 9.28311,-5.03311 0.27397,-1.54701 -0.89728,-3.65732 -0.19979,-5.01461 0.87198,-1.69673 3.7092,-2.9727 5.03648,-4.44021 3.02273,-3.34215 5.02895,-7.21249 7.52384,-10.90882 1.13605,-1.68315 2.74436,-3.10991 3.36422,-5.09091 0.68523,-2.18999 -0.48474,-3.72248 -0.71014,-5.81818 -0.17938,-1.66775 0.81037,-3.36102 0.78644,-5.09091 -0.0213,-1.54159 -0.97878,-3.23367 -0.70144,-4.72727 0.57058,-3.07254 3.29417,-6.05935 4.26319,-9.09091 0.89435,-2.79799 0.35737,-5.85512 1.14337,-8.72728 1.60813,-5.87633 5.03174,-11.73189 5.45091,-17.81818 0.28333,-4.11404 -1.32333,-7.63268 -1.72363,-11.63636 -0.27242,-2.72457 0.43647,-5.72248 -0.42312,-8.36364 -0.82538,-2.536 -3.53019,-2.67205 -4.55948,-4.70091 -0.78387,-1.5451 0.61448,-4.0933 0.32657,-5.84454 -0.72767,-4.42605 -3.63885,-4.26718 -6.61164,-6.44643 -2.00826,-1.47217 -2.84384,-4.17032 -4.79967,-5.77943 -4.66895,-3.84128 -11.94949,-7.48353 -18.1765,-6.57382 -2.18363,0.31903 -3.83922,1.61581 -5.81818,2.43604 -0.53569,-4.14844 -2.60915,-8.70244 -7.63636,-7.87909 -1.70042,0.2785 -3.42867,2.18005 -5.09091,1.99974 -2.76008,-0.29938 -4.03183,-2.89926 -7.27273,-1.88328 -1.82195,0.57116 -3.36954,3.7417 -5.09091,3.74243 -1.29949,5.6e-4 -2.50719,-2.128 -3.63778,-2.72812 -2.28023,-1.21036 -7.62185,-3.19056 -10.1804,-2.98821 -3.21777,0.25448 -5.84464,2.59854 -9.09091,3.03647 -3.26185,0.44003 -6.19811,-1.17248 -9.45454,-0.01 -3.35272,1.19731 -6.34029,5.41062 -10.18182,5.04603 -4.17827,-0.39655 -5.8853,-5.03808 -9.45455,-6.40376 -3.69642,-1.41433 -7.52002,-0.0909 -11.27273,-0.40629 -2.33509,-0.19623 -6.69602,-2.27699 -8.71156,-3.50364 -2.01371,-1.22557 -2.45925,-3.89229 -4.38494,-5.29069 -1.79892,-1.30633 -4.41016,-0.57701 -6.03844,-1.86055 -1.80069,-1.41941 -2.27588,-4.24794 -4.86532,-4.74272 -6.84145,-1.30722 -3.32684,8.12252 -7.64285,9.15377 -6.57502,1.57102 -13.84952,-3.14929 -20.35662,-2.50728 -2.81139,0.27736 -3.44083,4.21215 -6.12176,4.52019 -2.34584,0.26953 -3.33736,-3.10391 -5.87851,-2.07857 -4.68124,1.88888 -9.60857,6.84185 -11.99858,11.14675 -1.67831,3.02295 7.6e-4,6.19603 -4.00142,7.80638 -3.38885,1.36364 -8.15625,-1.48029 -11.96604,0.0494 -2.40994,0.96764 -3.00324,5.50644 -5.86617,5.60325 -4.17028,0.14103 -4.24347,-7.7065 -9.80948,-4.92538 -6.37802,3.18692 -0.93883,8.04 -2.75954,12.91948 -0.89263,2.39227 -3.80309,3.30442 -4.69585,5.8196 -1.88348,5.30629 3.40962,11.68555 3.5317,17.09091 0.10529,4.66193 -3.25116,10.22017 -2.36781,14.90909 0.63991,3.39658 1.95951,7.65275 4.85657,9.73793 1.49042,1.0728 4.35277,1.2611 5.38948,2.73597 2.07617,2.95371 1.79763,7.8529 3.61421,11.16247 1.16868,2.12922 3.57937,2.88547 4.73651,4.80469 1.45281,2.40962 1.01553,4.96027 3.37038,7.07577 1.80802,1.62424 4.36408,2.09952 6.08079,3.80415 2.46196,2.44474 4.08292,5.91313 7.3398,7.46889 2.71515,1.29696 4.95521,0.37975 7.6024,0.97643 1.73753,0.3916 2.52602,2.81467 4.03955,3.74183 2.26572,1.38796 4.87607,1.67241 7.26714,2.71324 1.60844,0.7002 2.7729,2.0665 4.36363,2.80079 4.24077,1.9576 8.18222,0.18399 11.27273,-2.84034 z"/>
    <path id="valryndor"
          d="m 294.54546,190.9091 c -0.68228,1.3063 -1.32841,3.54696 -2.92902,3.9335 -2.926,0.70661 -7.86397,-3.34927 -9.7211,1.19023 -0.80788,1.97474 1.57883,4.27528 2.49496,5.78536 2.25297,3.71362 5.10471,9.8704 6.05808,14.07799 0.56417,2.48984 -2.25179,4.6503 -1.13805,7.3297 1.04686,2.51849 4.85188,2.24954 4.85017,5.5028 -8.2e-4,1.54772 -0.0719,4.1467 -1.18517,5.31117 -1.28578,1.34492 -4.33041,1.6285 -4.52499,3.8123 -0.3171,3.55895 5.02461,5.8473 3.33587,9.40487 -1.38166,2.91067 -7.76359,2.55877 -7.94725,5.84961 -0.20936,3.75131 5.31479,6.23056 4.75167,9.44276 -0.31055,1.77151 -2.27794,2.30329 -3.14029,3.69951 -1.05651,1.7106 -0.47659,3.8908 -0.91666,5.75111 -0.45759,1.93435 -2.16604,3.72044 -1.88945,5.8036 0.41983,3.16204 6.0465,2.28258 5.88974,5.83305 -0.18868,4.27342 -7.08275,6.86115 -7.28818,11.27244 -0.15221,3.26824 5.53343,3.71984 5.25448,7.01824 -0.3781,4.47077 -3.4604,4.61462 -6.46744,6.51907 -1.90971,1.20949 -7.18412,5.89677 -8.02636,7.93182 -4.21507,10.18461 8.15627,15.97159 7.84903,25.8036 -0.0679,2.17394 -2.20639,6.09373 -4.25195,6.94809 -2.06819,0.86381 -4.28793,0.49234 -6.00702,2.26655 -2.80975,2.89984 -1.28309,8.00937 -0.75983,11.51263 0.30677,2.05389 1.79483,3.51481 2.21802,5.45455 0.50983,2.33687 -0.74969,4.61599 0.61419,6.89448 1.26627,2.11546 3.61222,2.06317 5.35494,3.47279 3.39066,2.74255 6.19782,7.40661 9.88665,9.62935 2.32193,1.39915 5.41293,-0.19264 7.57324,1.3137 4.32504,3.01576 7.57247,9.44492 13.15263,10.24974 2.38064,0.34335 5.14493,0.0701 7.27273,-1.09597 1.3066,-0.71604 2.46456,-2.29124 4,-2.48487 5.76123,-0.72643 11.81144,8.45948 16.85494,1.46973 0.77787,-1.07808 1.21364,-2.40159 1.69052,-3.63077 5.02283,3.07697 9.72973,-1.03445 13.56369,-3.68799 1.55913,-1.0791 3.64387,-0.43377 5.3454,-1.18967 3.99234,-1.77362 9.18126,-7.53161 13.81818,-7.21436 2.63587,0.18031 4.35143,2.27695 7.27273,1.73988 3.29323,-0.60538 4.07719,-3.06942 6.62149,-4.54683 1.17711,-0.68355 2.96751,-0.39955 4.2876,-0.69673 2.6918,-0.60596 5.30411,-2.19487 8,-2.51851 2.84979,-0.34211 8.14031,-0.57782 10.90909,-0.16975 2.03884,0.30047 3.62891,1.90061 5.81818,2.09175 2.26168,0.19754 4.034,-1.42853 6.18182,-1.37988 1.88632,0.0427 3.52619,0.71325 5.45455,0.29261 2.17715,-0.47487 3.52059,-2.05854 5.45454,-2.97531 2.07147,-0.98189 4.19176,-1.25049 6.18155,-2.54488 1.22657,-0.7979 2.85006,-3.15157 4.36364,-3.15095 2.35343,9.6e-4 3.0546,4.47579 4.74352,5.71323 2.03089,1.48806 4.76145,0.87229 6.86026,2.06037 1.39911,0.79194 2.06477,2.43523 3.33843,3.39559 1.65651,1.24903 4.21555,2.0522 6.14897,2.80806 7.33842,2.86897 6.53906,-5.84677 12.72727,-6.37313 4.36705,-0.3715 4.10933,5.2887 7.98597,5.39644 3.01993,0.0839 3.68067,-4.7583 6.21045,-5.73962 3.7516,-1.45525 7.75426,1.06282 11.25812,0.23793 4.51745,-1.06348 3.34194,-6.63002 5.58137,-9.86364 1.37234,-1.98155 3.57315,-2.42238 4.03369,-5.13916 0.77792,-4.58917 -5.65376,-6.70341 -6.65545,-10.80526 -0.49565,-2.02968 0.51123,-4.33004 -0.47927,-6.28425 -0.96538,-1.90472 -3.21005,-2.83791 -4.62287,-4.37065 -1.46471,-1.58904 -2.06423,-3.7775 -3.74272,-5.19107 -1.28427,-1.08159 -2.94003,-1.39495 -3.94527,-2.82324 -1.41113,-2.005 -3.21311,-5.64525 -3.87344,-7.98007 -0.39902,-1.4108 0.19606,-2.96423 -0.54297,-4.30192 -2.59633,-4.69948 -6.95877,-7.98415 -10.40261,-12.06172 -1.17139,-1.38692 -1.55944,-3.1746 -2.64112,-4.59062 -1.1819,-1.54719 -3.8477,-3.21025 -5.7385,-3.63523 -2.34806,-0.52777 -6.32533,0.0319 -6.58927,-3.30669 -0.24911,-3.1507 4.10418,-6.10527 4.42259,-9.55837 0.27397,-2.97146 -1.60489,-5.37906 -1.53005,-8 0.0854,-2.9915 2.96968,-5.49567 3.60076,-8.36364 0.74578,-3.38936 -0.59104,-7.91029 -1.1748,-11.27272 -0.48873,-2.81495 -3.79768,-3.60121 -4.0898,-6.1664 -0.24974,-2.19282 3.33709,-3.02787 3.04825,-5.8336 -0.54688,-5.31202 -5.71019,-2.17612 -7.40434,-5.83417 -1.2714,-2.74525 2.18807,-5.76968 1.9501,-8.71129 -0.28382,-3.50883 -1.14098,-8.78917 -2.78733,-11.91695 -1.01811,-1.93421 -3.96205,-1.20494 -4.10467,-4.08305 -0.0878,-1.77324 1.21924,-3.30333 1.04914,-5.09091 -0.15696,-1.64952 -1.62828,-3.2365 -1.29181,-4.93659 0.69624,-3.51802 2.62233,-7.05029 3.27437,-10.69977 0.2618,-1.46534 -0.47075,-2.90159 -0.26066,-4.36364 0.23531,-1.63752 1.39134,-2.99527 1.18408,-4.72727 -0.24063,-2.01083 -1.87557,-3.98895 -2.69948,-5.81818 -1.04696,-2.3244 -1.57839,-6.4142 -3.89169,-7.88584 -1.98056,-1.25998 -4.9565,-1.23774 -7.13077,-2.26402 -2.28378,-1.07799 -4.19993,-2.95109 -6.54546,-3.89338 -1.72177,-0.69172 -3.3821,0.3576 -5.09091,-0.16917 -1.55158,-0.47829 -2.77033,-1.64657 -4.36363,-2.08527 -2.60507,-0.71724 -5.34744,-0.23868 -8,-0.49134 -2.02761,-0.19314 -4.19039,-1.02823 -6.18182,-1.06534 -3.13539,-0.0584 -6.42458,2.59432 -9.81818,2.51118 -2.13228,-0.0522 -4.02193,-1.47146 -6.18182,-1.53982 -1.46103,-0.0462 -2.56534,1.05079 -4,1.10188 -2.57165,0.0916 -6.48797,-0.50631 -9.09091,-0.86058 -3.36963,-0.45862 -6.75222,-2.0027 -10.18182,-1.88805 -3.05842,0.10228 -5.48742,1.76807 -8.36364,2.38779 -1.79694,0.38716 -3.73939,-0.54985 -5.45454,-0.002 -1.61422,0.51536 -2.61819,2.0099 -4.36364,2.28228 -3.4664,0.54092 -4.64287,-3.06188 -7.63636,-3.73207 -3.077,-0.68892 -3.9674,3.45525 -6.54686,4.04013 -2.97114,0.67369 -4.51185,-3.32893 -7.97785,-2.02832 -2.08782,0.78342 -1.94899,3.81139 -3.39337,5.32266 -1.75162,1.83279 -4.45197,1.49117 -6.40741,2.88779 -2.27053,1.62167 -2.98004,4.61261 -5.4927,6.2337 -1.61554,1.04231 -3.91233,2.19576 -5.81818,2.51124 -1.64535,0.27232 -3.84803,-0.11684 -5.19893,1.11922 -1.14524,1.0479 -1.21038,3.11377 -2.06285,4.41136 -2.06625,3.1452 -6.25617,4.25073 -9.82913,4.00533 z"/>
    <path id="tyrasalar"
          d="m 450.18183,172.00001 c 1.26452,4.38969 5.83763,9.72447 6.03285,14.18181 0.0679,1.54965 -1.05154,2.85192 -1.21382,4.36364 -0.41389,3.85509 -0.29568,7.84271 -1.42117,11.63636 -0.37966,1.2797 -1.50963,2.27448 -1.61812,3.63637 -0.14515,1.82198 1.326,3.31567 1.33922,5.09091 0.0139,1.86452 -1.50097,3.53105 -1.03058,5.45286 0.61146,2.49818 3.58035,1.94087 4.39902,4.37093 1.09685,3.25578 2.91606,8.55984 2.46968,11.99439 -0.32369,2.4905 -2.83359,4.66495 -2.1428,7.26711 0.91814,3.45872 5.5997,1.24097 7.07519,4.37627 1.95175,4.14724 -3.04985,4.59355 -2.66135,7.64477 0.28422,2.2324 2.87722,2.83343 3.75226,4.71747 1.28844,2.77403 1.3394,6.78193 1.69416,9.80724 0.50297,4.28935 -3.06192,6.91572 -3.68746,10.91441 -0.48499,3.10021 2.38992,5.86084 1.34571,9.46886 -0.84606,2.9233 -5.14462,6.29104 -4.01123,9.43322 0.77903,2.15983 3.0886,1.77954 4.95117,2.16302 2.52748,0.52038 5.69052,1.92478 7.25479,4.10185 3.26319,4.54151 6.75058,8.6697 9.81224,13.2239 0.88414,1.31512 2.48193,2.05063 3.23122,3.45987 0.67356,1.26683 0.0716,2.64032 0.39005,3.96747 0.55593,2.31742 2.5815,6.38225 4.02663,8.31509 0.99135,1.32595 2.73513,1.67432 3.94527,2.76825 1.52974,1.38283 2.10343,3.37906 3.42117,4.91104 1.40807,1.63699 3.57745,2.51552 4.73961,4.37065 1.52841,2.43981 -0.18058,5.49226 1.27668,7.9986 1.86053,3.19996 5.3667,4.98647 6.26598,8.72728 2.47438,-0.8133 4.83864,-3.55116 7.2713,-3.89675 2.23451,-0.31743 3.42694,3.06045 5.86701,2.13749 2.26155,-0.85544 3.03174,-4.46169 5.77078,-4.40347 1.97203,0.0419 5.40203,-0.0726 7.27273,0.30189 3.62251,0.72514 9.62251,3.59659 13.40598,1.95428 2.20428,-0.95681 1.52606,-5.09637 2.64453,-6.9826 1.12749,-1.90148 3.2797,-1.52426 4.79825,-2.77948 1.77286,-1.4654 2.45069,-4.03939 4.30922,-5.38494 3.84703,-2.78516 9.94962,-1.11872 13.26767,-4.65013 1.22656,-1.30542 1.7591,-2.99593 2.30162,-4.65993 4.45716,1.89307 10.41886,-0.34149 14.18182,-3.09766 1.92134,-1.40729 4.12256,-3.82748 6.54545,-4.29796 2.94034,-0.57096 5.37265,1.24871 8.36364,-0.43433 2.53001,-1.42362 3.35236,-5.22895 5.53622,-6.27976 1.77579,-0.85445 5.40128,0.32704 7.55469,-0.10802 2.75129,-0.55584 4.17099,-2.71984 6.54545,-3.89928 2.0147,-1.00076 4.48957,-0.55194 6.54546,-1.67114 3.47368,-1.89103 3.17596,-5.25881 5.53733,-7.78114 4.05615,-4.33266 9.91868,-6.80629 13.20144,-12.06847 1.64813,-2.64194 0.73065,-5.35743 1.84428,-7.92117 0.65754,-1.51371 2.95694,-2.18146 4.06676,-3.38412 2.23451,-2.42139 3.96378,-7.59559 3.65155,-10.87513 -0.32719,-3.43657 -2.40496,-4.78134 -3.68266,-7.65068 -1.67978,-3.77222 -2.42605,-7.80192 -4.90545,-11.25842 -1.36142,-1.89794 -3.93311,-3.02272 -4.93071,-5.10549 -1.44456,-3.01591 -1.89129,-6.39351 -3.1389,-9.43856 -0.6851,-1.67212 -2.42782,-2.68198 -2.99605,-4.36643 -0.94775,-2.80949 0.70823,-5.38324 -1.81623,-7.92117 -4.34108,-4.36424 -12.83034,-3.22525 -16.79239,-8.26571 -1.16109,-1.47714 0.10671,-4.34824 0.43382,-5.99355 0.92263,-4.64055 2.70246,-9.18901 -0.82324,-13.05275 -3.35512,-3.67678 -8.82813,-2.1535 -12.51936,-4.72643 -3.61918,-2.52273 -1.28116,-8.43029 -4.78649,-10.6347 -2.35489,-1.48096 -4.15949,1.47452 -6.52552,0.55895 -3.49521,-1.3525 -5.96871,-4.74508 -9.09091,-6.70286 -2.39085,-1.4992 -4.88339,-0.23122 -7.27246,-1.38526 -3.34943,-1.61794 -5.38676,-4.66415 -9.09118,-5.98708 -5.41774,-1.93483 -11.45117,-2.40634 -17.09091,-3.42929 -1.55282,-0.28165 -3.76509,0.55842 -5.09091,-0.0466 -2.70809,-1.23575 -3.56174,-4.57031 -5.49272,-6.56148 -4.46413,-4.60329 -11.65474,-9.36599 -18.14364,-10.00391 -2.70166,-0.26558 -4.96689,2.67148 -7.27273,3.6563 -1.15434,0.49303 -2.52752,0.35271 -3.57462,1.07963 -1.68594,1.17046 -2.81068,3.57657 -5.15265,3.50338 -3.23495,-0.10112 -3.59894,-3.26119 -6.18351,-4.23034 -1.8694,-0.70095 -4.50807,0.68359 -6.07883,-0.71298 -2.28849,-2.03476 -1.54315,-7.44176 -6.2674,-6.94975 -2.82577,0.2943 -2.37118,5.17369 -5.12234,5.87176 -1.31925,0.33474 -2.66419,-0.27326 -3.98428,0.18519 -1.6223,0.56339 -2.61466,2.15203 -4.36364,2.42339 -2.24925,0.34894 -4.69087,-0.3762 -6.90909,0.16921 -1.82569,0.44886 -2.88246,2.32106 -4.72728,2.7385 -1.59778,0.36155 -3.14004,-0.054 -4.72727,0.59455 -1.64502,0.67218 -2.73792,2.1717 -4.36363,2.83247 -1.20557,0.49002 -2.737,0.35525 -3.74441,1.29857 -2.11857,1.98375 -0.0131,5.0083 -0.24157,7.32968 -0.20752,2.10853 -1.96169,3.09876 -3.65039,4 z"/>
    <path id="lysanthia"
          d="m 197.09091,333.81819 c 2.34597,6.0386 6.77327,3.36548 11.27273,4.21522 2.09668,0.39598 3.53101,1.75901 5.81818,1.53842 1.69332,-0.16331 3.45835,-1.69234 5.05838,-1.59315 3.3611,0.20836 4.30486,5.0228 8.75981,4.06117 5.82315,-1.25697 4.57621,-5.63583 7.12824,-9.27468 2.54006,-3.62181 7.38956,-5.61293 10.16861,-8.84289 1.52719,-1.77499 -0.10951,-4.2826 1.13692,-5.87233 1.71371,-2.18575 4.63618,-2.5024 5.37094,-5.6863 0.80935,-3.50713 -3.89644,-5.42905 -3.32071,-8 1.02408,-4.57311 7.12821,-6.87097 8.97054,-11.27273 3.2894,3.85933 6.54535,9.14275 8.41555,13.81818 1.23706,3.09257 0.7977,7.80154 5.40264,8.47195 3.15067,0.45869 6.00053,-3.94474 7.80639,-5.85831 2.52047,-2.67079 8.6383,-2.90306 7.4652,-8.3701 -0.58374,-2.72044 -4.68164,-3.17633 -5.13297,-5.8799 -0.66126,-3.96121 6.56621,-7.46796 7.18966,-11.27273 0.67285,-4.10625 -5.76208,-3.00249 -5.89618,-6.55078 -0.0632,-1.67321 1.27293,-3.17403 1.73176,-4.72195 0.58767,-1.98258 -0.0824,-4.2939 1.01374,-6.14786 0.91577,-1.54889 2.98175,-2.04925 3.21606,-4.03003 0.43149,-3.64768 -5.65938,-5.73107 -4.62766,-9.78396 0.80568,-3.16499 6.61581,-2.2905 7.906,-5.50841 1.56379,-3.90023 -3.96455,-5.75985 -3.40236,-9.40487 0.39579,-2.56612 4.46595,-2.27981 5.1616,-4.77695 0.45195,-1.62236 1.09435,-5.22521 -0.10521,-6.60802 -1.27776,-1.47299 -3.87342,-1.82613 -4.39084,-3.92844 -0.6092,-2.47519 1.87154,-4.45355 1.28675,-6.90237 -1.32883,-5.56448 -4.89195,-11.87307 -7.82688,-16.72727 -0.92904,-1.5366 -1.24139,-3.38812 -2.70594,-4.56958 -2.45335,-1.97914 -5.00145,0.27075 -7.59682,-0.3297 -1.81907,-0.42086 -2.12402,-2.19314 -3.37373,-3.27777 -3.79262,-3.29159 -7.22772,-2.72725 -6.44585,-8.91386 -3.14213,0.21071 -6.17636,-1.24792 -6.50701,-4.72728 -0.10836,-1.14004 0.6204,-3.13378 -0.0629,-4.09903 -1.33922,-1.89191 -4.69635,-1.21169 -5.16863,-4.26487 -0.52781,-3.41206 1.56365,-6.56432 -0.71575,-9.78507 -1.33625,-1.88809 -3.93096,-2.70268 -4.9902,-4.76544 -1.2939,-2.51971 -0.38103,-5.47634 -3.29853,-7.31903 -2.42843,-1.53378 -7.00908,0.92232 -8.76348,-1.197 -2.61417,-3.15794 -1.77603,-8.0546 -3.25335,-11.47865 -0.64972,-1.50586 -2.03389,-2.5221 -2.71941,-4 -1.12423,-2.4236 -1.06701,-4.83629 -3.10439,-6.87091 -1.53728,-1.53521 -4.28102,-1.51874 -5.56061,-3.06144 -1.30571,-1.57422 -0.5959,-4.26509 -1.91104,-6.05167 -2.32118,-3.15323 -8.5054,-4.48113 -12.12656,-5.27188 -2.51953,-0.55016 -4.1746,-2.55842 -6.54545,-3.43715 -2.15077,-0.79714 -4.89871,-0.42356 -6.89451,-1.49742 -1.70195,-0.91575 -2.4393,-3.00085 -4.01991,-4.11759 -4.5466,-3.212314 -8.72317,0.04608 -10.90376,4.12624 -3.26051,-3.23091 -5.1126,-2.39768 -9.09091,-3.38831 -2.93875,-0.731804 -4.59276,-3.483624 -8,-3.454017 -3.26267,0.02836 -5.41359,2.875487 -8.36364,3.691937 -2.03829,0.5641 -4.45083,-0.48317 -6.54546,-0.48317 -2.33709,0 -4.63083,1.09295 -6.90207,1.06369 -1.87744,-0.0242 -1.99927,-2.326922 -2.70427,-3.611679 -1.02303,-1.864302 -2.79658,-3.113015 -4.93911,-3.233709 -4.86785,-0.274237 -8.98015,4.548295 -13.45455,5.045144 -1.54466,0.17152 -3.08631,-1.358532 -4.72727,-1.430931 -2.71023,-0.11954 -7.10319,1.002486 -9.81818,1.629883 -3.980581,0.919882 -7.5196,4.330882 -10.909093,6.411622 -3.971164,2.43781 -8.333768,3.40412 -12.363636,5.72869 -3.546426,2.04568 -9.612938,3.81361 -11.951461,7.31818 -1.394487,2.0898 -1.812373,4.82862 -1.25561,7.25813 0.297469,1.29803 1.747703,3.30473 0.920316,4.58531 -1.862494,2.88273 -7.038342,3.01239 -9.328564,5.97444 -2.498396,3.23131 -0.371421,7.37051 -2.333058,10.51686 -1.96107,3.14542 -5.843123,4.53294 -7.66975,8.0143 -1.719654,3.27748 -0.515189,7.19997 -2.127386,10.53116 -1.096979,2.2666 -3.605785,3.19673 -4.242423,5.83248 -1.817028,7.52263 6.335951,10.24977 5.661896,17.45454 -0.208702,2.23074 -2.510975,3.81081 -2.83586,6.18182 -0.335521,2.44864 1.43826,4.58589 1.164143,6.90909 -0.163627,1.38676 -1.031935,2.59297 -1.207633,4 -0.218781,1.75204 0.474001,3.78212 -5.61e-4,5.45455 -0.479736,1.69065 -1.812627,2.9266 -2.129067,4.72727 -0.543291,3.09157 0.59269,6.02772 0.607463,9.09091 0.02185,4.53025 -1.198883,9.77825 -0.616444,14.18182 0.413311,3.12484 3.229079,8.3902 5.741864,10.30948 1.71506,1.30997 4.512357,1.04918 5.546581,3.16499 1.98013,4.05094 -0.416854,8.34686 0.838379,12.34371 0.992842,3.16135 4.641096,3.20073 6.11448,5.8339 2.103304,3.75894 1.461597,8.48768 3.818742,11.9697 1.661532,2.45446 4.991522,2.39222 6.558644,4.75784 1.756275,2.65114 1.51158,6.37548 4.036194,8.56931 3.09957,2.69345 7.622647,0.81572 10.429854,2.90685 4.017489,2.9927 3.662748,9.85431 8.441079,12.45707 3.068204,1.67126 7.23291,0.60214 10.545451,1.24159 2.07115,0.39982 3.6079,1.68087 5.81819,1.71156 1.73437,0.0241 4.20153,-1.46795 5.76964,-0.90405 1.44051,0.518 1.53203,2.61157 2.04096,3.81987 0.73624,1.74796 2.02973,3.07925 3.82576,3.72194 2.54847,0.91194 6.41093,2.72046 9.09091,2.65517 2.09944,-0.0512 3.49892,-1.56146 5.45454,-1.90714 2.10664,-0.37236 4.59792,0.79115 6.54546,1.47363 5.74527,2.01336 11.9157,5.48278 17.07659,8.57913 1.82936,1.09754 2.72465,3.18503 4.74159,4.09399 2.19816,0.99063 4.5901,0.49982 6.90909,0.68996 2.06406,0.16924 3.79221,1.42547 5.81819,1.70763 1.90124,0.26479 3.59092,-0.6839 5.45454,-0.59821 2.25472,0.10367 4.26445,1.55467 6.54546,1.68799 4.40427,0.25744 6.70019,-3.56077 9.0909,-6.46773 z"/>
    <path id="graumark"
          d="m 624.00002,200.72728 c 5.8366,-6.7e-4 8.03107,-3.68994 12.76123,-6.08081 1.95774,-0.98955 4.27779,-0.0215 6.2876,-0.84819 2.68337,-1.10374 7.21915,-3.28442 10.28085,-2.16668 2.15168,0.78553 2.63299,5.01067 4.91921,6.36335 3.07892,1.82168 7.21689,2.43976 9.97501,-0.3165 4.59038,-4.58729 0.73606,-8.425 0.18714,-13.31481 -0.31485,-2.80495 1.64054,-4.96839 2.03845,-7.63636 0.38498,-2.58119 -1.4799,-6.15909 -2.60183,-8.43351 -0.91162,-1.84805 -2.70015,-2.97518 -3.72284,-4.71915 -0.98704,-1.6831 -1.13991,-3.7583 -2.68989,-5.10715 -2.67481,-2.32777 -6.54404,-2.40483 -7.9672,-6.10916 -2.0293,-5.28209 2.34401,-6.91628 3.16526,-11.99467 0.73251,-4.52961 -2.87531,-5.66095 -4.0435,-9.09766 -0.89338,-2.62819 1.10471,-4.93479 -0.69833,-7.78395 -3.84025,-6.06832 -12.18773,-9.71782 -17.76967,-13.94305 -2.08864,-1.58097 -2.88112,-4.05598 -4.69584,-5.87372 -2.26811,-2.27188 -6.68093,-4.611724 -9.64928,-5.827145 -2.77575,-1.136541 -6.31068,0.875844 -8.80554,-0.317338 -3.23078,-1.545099 -6.19242,-3.941895 -9.23823,-5.794922 -3.95646,-2.407049 -8.60303,-4.221192 -12.25844,-7.065918 -2.45974,-1.91424 -2.40656,-5.435592 -5.47558,-6.984287 -2.05886,-1.038929 -4.36786,-0.288219 -6.54404,-0.680708 -1.66921,-0.301048 -2.97754,-1.29834 -4.72727,-1.351563 -1.22532,-0.03729 -2.78658,0.678845 -3.93124,0.406561 -1.59415,-0.379217 -1.88938,-3.245117 -2.7868,-4.406827 -1.6994,-2.199885 -4.771,-3.201572 -7.46378,-3.279475 -0.11204,-3.791903 -3.15589,-6.804155 -6.90909,-7.225852 -3.60587,-0.40514 -5.49108,2.393954 -8.72754,2.813654 -3.03591,0.393688 -6.20725,-0.284801 -9.09064,0.144531 -2.7097,0.403498 -5.22852,1.876909 -8,2.066185 -3.80309,0.259765 -8.07218,-0.523527 -11.46214,1.73402 -5.9604,3.969371 -8.31916,9.507946 -8.49099,16.467463 -0.0527,2.133434 0.84615,4.427024 0.50449,6.545455 -0.37549,2.328169 -3.17188,3.475541 -3.33785,5.818182 -0.13903,1.962003 1.99414,3.127352 1.95122,5.090904 -0.0656,2.99765 -3.44931,4.45575 -3.75791,7.27273 -0.35649,3.25457 2.82493,4.75817 1.13499,8.34935 -1.73979,3.69713 -6.28911,2.00985 -8.85156,4.49773 -2.36311,2.29435 0.59961,4.51412 0.0777,7.15292 -0.94193,4.76261 -7.91836,6.91957 -5.26123,12.64449 0.96392,2.07675 5.15732,2.91073 6.90852,4.31454 1.84357,1.4779 1.284,3.90545 2.77162,5.46942 1.38023,1.45104 3.87806,0.15651 5.6313,0.59623 3.12123,0.78281 3.95419,5.47457 8,4.36506 1.91819,-0.52606 2.8477,-2.49006 4.39617,-3.53427 1.58727,-1.07035 3.72013,-0.98761 5.42201,-2.11221 1.53662,-1.01541 3.44416,-2.90261 5.45455,-2.40545 6.5637,1.62318 12.06982,4.79953 17.08531,9.45148 2.1836,2.0253 3.24268,6.02073 6.18741,7.1535 1.3505,0.51948 3.21281,-0.44829 4.72728,-0.20628 5.498,0.87851 11.45277,1.47306 16.72727,3.29772 3.96009,1.36994 6.20091,4.73415 9.81312,6.31006 2.32746,1.0154 4.61737,-0.25054 6.91415,1.18883 3.16518,1.98353 5.61413,5.20858 9.09091,6.71742 2.52957,1.09774 4.58843,-1.99765 6.88916,-0.33079 3.20482,2.32182 1.28902,7.42407 4.17201,10.1448 1.31716,1.24301 3.62527,1.20539 5.30247,1.62458 4.3782,1.09426 8.21018,2.5237 10.18182,6.94724"/>
    <path id="eldarion"
          d="m 461.09092,46.18182 -5.45454,-2.827149 -6.18182,2.940785 -4.35804,1.442205 -3.05638,3.320979 -7.49467,2.395907 c -1.19145,-7.948642 -12.20641,-8.659668 -13.45455,-0.363636 -1.6337,0 -3.53258,0.252619 -5.09091,-0.323509 -1.97208,-0.729137 -3.29634,-2.443315 -5.45454,-2.829412 -4.14214,-0.740989 -6.91442,2.673739 -10.90909,2.072976 -3.12953,-0.470659 -4.26816,-4.04399 -7.27273,-5.020198 -4.19363,-1.362526 -5.92689,2.312101 -9.45455,2.238193 -2.18315,-0.04576 -3.72674,-2.595437 -6.18182,-2.616744 -2.27894,-0.0198 -4.30997,1.315874 -6.54545,1.577193 -2.13634,0.249734 -4.12043,-0.606623 -6.18182,0.424494 -4.03052,2.016025 -6.21649,5.548029 -11.27273,5.815963 -3.40947,0.180664 -6.07204,-3.899059 -9.45454,-4.492144 -2.92823,-0.51345 -7.68369,-1.805486 -10.54546,-0.978382 -1.66652,0.481667 -2.77497,1.88734 -4.36363,2.459295 -1.46467,0.527299 -2.93846,0.301447 -4.34932,1.138894 -1.33541,0.792658 -2.02342,2.328258 -3.35017,3.068759 -2.07994,1.160911 -4.71049,0.01278 -6.76824,1.701705 -2.75975,2.265092 -0.004,6.113459 -2.02582,8.204856 -1.25293,1.295987 -3.75934,4.047763 -5.36252,4.744096 -2.24041,0.973145 -4.49721,0.507147 -6.30498,2.560858 -2.5378,2.883079 -2.04563,7.32524 -4.20064,10.387784 -1.74223,2.475942 -4.29607,2.914507 -5.09286,6.22896 h -0.36364 l -0.36363,-5.090909 c 10.83915,-0.953569 7.55795,-22.01789 -1.81819,-23.157938 -3.05431,-0.37136 -4.33844,1.792792 -6.64928,3.153454 -2.64979,1.560236 -5.64471,0.757768 -7.37176,4.005904 -1.09712,2.063432 0.10787,4.643022 -0.90349,6.425914 -0.81346,1.433994 -2.69694,2.446023 -3.75926,3.75475 -2.53496,3.122914 -3.31146,7.994274 -1.34679,11.636098 3.46615,6.425071 9.38341,1.986506 14.57604,4 -1.26607,2.179909 -1.27481,5.021307 -2.96156,6.894489 -2.718,3.01842 -6.33565,4.06854 -8.19221,8.0146 -1.36838,2.90847 0.0665,5.48948 -0.63523,8.36364 -0.66555,2.72607 -3.41814,4.63943 -4.89872,6.90909 -0.75642,1.15958 -0.98686,2.85134 -2.01403,3.79519 -1.27863,1.17489 -3.21771,1.16393 -4.53283,2.43519 -2.79487,2.7017 -4.41504,6.70517 -7.70847,9.05495 -2.42705,1.73167 -8.21476,4.65488 -8.69724,7.98766 -0.17492,1.20819 0.80985,2.2983 1.18463,3.37629 0.4435,1.27566 0.0576,2.69798 0.85689,3.86222 1.49974,2.18452 4.22392,2.91224 5.39591,5.48877 1.35116,2.97043 -0.57848,5.79652 0.0294,8.72558 0.58281,2.80802 3.5433,2.22017 5.01236,3.90239 0.85609,0.98034 0.16844,3.23944 0.29011,4.46267 0.34515,3.46982 3.40614,4.70801 6.5073,4.36364 -1.12822,6.07703 2.30835,5.83651 6.13357,8.91386 1.2771,1.02741 1.59046,2.82207 3.32659,3.29068 3.75779,1.01432 6.15512,-2.08192 9.0853,1.97728 1.46997,-0.62128 2.73841,-1.93866 4.36363,-2.12374 4.75702,-0.54172 6.80951,3.22681 9.09091,-2.96717 3.39922,0.37329 7.81927,-0.6567 9.82913,-3.65068 1.00266,-1.49359 1.00219,-3.97202 2.61616,-4.96633 2.71287,-1.67135 6.70384,-1.27508 9.73653,-2.81681 3.13008,-1.59126 3.73367,-4.55495 6.21997,-6.59171 1.64786,-1.34992 4.00584,-1.18985 5.7601,-2.34006 2.65288,-1.73944 1.75808,-5.9787 5.46915,-6.32911 2.59091,-0.24462 4.00131,2.91242 6.54938,2.41016 2.47688,-0.48824 3.4799,-4.43324 6.18322,-4.1515 2.7451,0.28609 3.93406,3.90279 6.90909,3.82324 2.50509,-0.067 3.61561,-1.80699 5.81818,-2.41331 1.70628,-0.46968 3.66724,0.36084 5.45455,-0.0249 2.62005,-0.56552 4.88308,-2.07697 7.63636,-2.33896 3.31122,-0.31507 6.95202,1.28103 10.18182,1.88663 2.65492,0.49783 6.35325,0.70441 9.09091,0.87514 1.70206,0.10613 3.036,-1.15319 4.72727,-1.02975 2.5871,0.18884 4.57977,1.73589 7.27273,1.31654 2.67401,-0.41641 6.15044,-2.40008 8.72728,-2.21102 4.22523,0.30997 9.76154,0.28684 13.81818,1.46409 1.57204,0.45618 2.78604,1.70539 4.36363,2.11084 1.58825,0.4082 3.1373,-0.5139 4.72728,0.0525 4.6123,1.64294 9.74827,7.44203 15.27246,5.70007 6.27783,-1.97963 -0.45654,-8.54945 3.7183,-11.21915 1.18653,-0.75875 2.6856,-0.63055 3.91833,-1.25564 1.70006,-0.86204 2.82257,-2.37482 4.72727,-2.92227 1.43559,-0.41265 2.99263,0.16108 4.36364,-0.37039 1.61967,-0.62788 2.64404,-2.2876 4.36363,-2.7104 2.34309,-0.57609 4.93142,0.35209 7.27273,-0.23092 1.54852,-0.3856 2.47577,-1.86319 4,-2.31427 1.44358,-0.4272 3.26425,0.35329 4.58532,-0.4893 1.64386,-1.04848 3.04541,-4.76709 3.77832,-6.53538 -0.85134,-0.43062 -2.01607,-0.70024 -2.72221,-1.3552 -4.4015,-4.08248 3.63414,-9.10605 4.58389,-12.46298 0.65488,-2.31464 -1.33523,-4.16531 -0.86284,-6.1804 1.10929,-4.73189 8.19394,-1.9011 9.86169,-6.19753 1.4126,-3.63916 -1.60472,-5.19678 -1.15599,-8.34935 0.35743,-2.5111 3.16353,-3.94788 3.62487,-6.54545 0.42676,-2.40297 -2.01389,-3.687769 -1.81592,-5.818184 0.19714,-2.121582 2.80593,-3.306108 3.2469,-5.454546 0.57856,-2.818937 -0.74619,-5.82271 -0.21494,-8.727273 -3.5969,0.156827 -10.98877,5.67192 -13.45454,1.090909 3.14453,-0.02601 6.59144,-0.863503 7.44247,-4.363636 0.40731,-1.675205 -0.0202,-3.440741 0.56791,-5.09091 0.61253,-1.718616 2.07236,-2.954545 2.60774,-4.727272 1.07311,-3.553134 0.18949,-7.31219 0.003,-10.909092 -0.1183,-2.285866 0.29998,-4.318226 -0.61532,-6.545454 -1.10809,-2.69629 -3.76603,-3.102051 -5.37403,-5.21045 -1.25031,-1.639426 -0.62588,-3.89169 -1.36279,-5.698375 -1.13321,-2.77841 -4.90074,-3.874157 -7.63299,-4.254484 -2.53227,-0.352494 -5.14626,2.144931 -7.27273,1.612216 -2.282,-0.571644 -3.55211,-2.497869 -6.18181,-2.400612 -3.21472,0.118874 -4.30509,2.767755 -6.64955,4.367276 -3.11857,2.127663 -5.46187,1.69478 -7.16864,5.766247 z"/>
</svg>